<?xml version="1.0" encoding="utf-8"?>
<!-- Generator: Adobe Illustrator 21.0.0, SVG Export Plug-In . SVG Version: 6.00 Build 0)  -->
<svg version="1.1" id="Layer_1" xmlns="http://www.w3.org/2000/svg" xmlns:xlink="http://www.w3.org/1999/xlink" x="0px" y="0px"
	 width="22px" height="20px" viewBox="0 0 22 20" style="enable-background:new 0 0 22 20;" xml:space="preserve">
<style type="text/css">
	.st0{fill:#999898;}
</style>
<path class="st0" d="M12.4,3.6l-0.6,2.9L11.2,9h8.7v2v0.1L17,18H8V8l0,0L12.4,3.6 M2,10v8V10 M13.2,0L6.6,6.6C6.2,6.9,6,7.4,6,8v10
	c0,1.1,0.9,2,2,2h9c0.8,0,1.5-0.5,1.8-1.2l3-7.1c0.1-0.2,0.1-0.5,0.1-0.7V9H22c0-1.1-0.9-2-2-2h-6.3l1-4.6V2.1
	c0-0.4-0.2-0.8-0.4-1.1C14.3,1,13.2,0,13.2,0z M4,8H0v12h4V8z M22,9L22,9L22,9z"/>
</svg>
