<svg version="1" xmlns="http://www.w3.org/2000/svg" width="188" height="98" viewBox="0 0 1880 980"><path d="M867 963c-29-12-131-122-453-485C185 220 0 7 2 4c3-2 427-3 942-2l937 3-411 465c-288 326-423 472-452 488-48 26-97 27-151 5z" fill="#4c1617"/><g fill="#5a444e"><path d="M867 963c-29-12-131-121-452-484C187 222 0 9 0 5c0-3 97-5 215-5h215v232l248 303c136 167 250 304 254 305 3 0 119-135 257-301l251-300V0h221c207 0 221 1 208 17-8 9-193 220-412 468-278 314-410 457-439 473-48 26-97 27-151 5z"/><path d="M906 749c-18-30-18-32 0-65 10-19 22-34 25-34 4 0 16 15 28 32 20 32 20 33 1 63-25 40-32 41-54 4zM988 665c-33-28-36-65-8-90 19-17 21-17 38-2 10 10 23 17 28 17 5-1-2-10-15-20l-23-20 23-35c13-19 26-35 29-35 13 0 34 20 27 26-4 4 1 13 11 20 16 13 16 13 0 14-10 0-18 5-18 10 0 10 12 13 28 8 8-3 11-58 2-58-3 0-14-7-24-15-19-15-19-16 9-45 16-17 39-30 52-30 20 0 22-4 17-25-8-33 19-65 55-65 24-1 24-2 9-14-17-12-17-14 3-32 12-10 31-18 43-16 16 2 18 1 7-6-7-6-10-15-6-22 5-8 16-3 36 16 33 32 39 19 9-19-23-29-25-41-7-55 15-12 117 17 117 34 0 6-9 19-20 29s-20 13-20 7c0-7-7-12-15-12-18 0-19 12-3 28 10 10 7 17-10 35-16 15-25 18-30 10-4-6-19-9-36-6l-29 6 23 17c15 12 21 23 17 34-6 15-9 15-29-6-13-13-17-17-10-8 6 9 12 26 12 38 0 23-47 65-65 58-8-3-10 4-8 18 3 16-6 34-29 58-18 20-35 39-37 44s-15 22-28 38c-20 24-26 27-34 15-6-10-9-5-9 17 0 29-25 64-46 64-5 0-21-12-36-25zm52-10c18-22 5-30-19-13-12 8-18 18-14 21 10 11 19 8 33-8zm133-172c9-9-22-43-40-43-17 0-17 10 4 32 17 19 26 22 36 11zm77-90c0-12-33-43-47-43-16 0-17 22-1 38 13 13 48 17 48 5zM794 642c-10-15-5-23 31-54l41-36 28 35c26 32 27 36 12 51-13 14-16 14-16 2-1-11-4-10-15 4-15 19-15 19-15-2 0-27-11-28-28-2-15 25-24 25-38 2zM738 573c-26-30-28-40-19-66 14-37 69-47 93-17 23 28 23 62 0 83-24 22-55 22-74 0zm44-30c18-16 25-43 11-43-12 0-43 33-43 47 0 17 10 17 32-4zM905 550c-3-5 0-10 7-10 7-1 2-7-12-15-24-14-23-14 28-15 28 0 52 5 52 10 0 6-4 10-10 10-5 0-10 7-10 15 0 17-45 21-55 5zM861 483c-23-16-23-17-5-24 16-6 14-8-8-8-29-1-40-21-12-21 14 0 14-3 3-16-10-13-10-17 1-24 10-6 8-14-9-38-11-17-21-35-21-41 0-5 23-25 50-43 28-18 45-35 39-37s-21 6-33 18c-28 26-43 27-51 2-8-28-81-91-104-91-11 0-33 11-49 25-34 28-47 32-39 11 4-10 1-13-7-10s-26-11-42-32-36-46-44-54c-29-31-60-70-60-75 0-3 30-5 66-5 52 0 70 4 80 17 13 17 14 17 8 1-5-14-1-18 20-18 27 0 27 1 25 62-1 35-6 69-12 75-5 7 20-7 56-31s71-46 79-49c10-3 8-9-6-23-14-13-16-14-7-2 10 14 9 18-9 28-11 6-25 8-30 5-6-3-10-1-10 6 0 12-29 38-42 39-5 0-8-24-8-54V21l95 1c94 1 112 7 78 27-15 8-15 10-3 11 9 0 23-9 32-19 14-16 30-19 122-19 96 1 105 2 94 17-10 13-8 12 8-2 11-9 33-17 49-17 25 0 26 2 14 18-13 16-13 16 7-1 11-9 33-17 48-17 24 0 26 2 15 21-8 15-8 19 0 15 8-5 11 13 11 58 0 36-4 66-8 66-18 0-44-40-38-56 5-14 4-15-8-5-8 7-21 9-28 5s5 9 27 29 43 36 48 37c16 0 5 28-20 52-16 15-39 42-53 62s-33 38-42 41c-10 4-18 12-18 18-1 7-22 36-49 65-44 50-49 53-64 37-23-22-21-41 5-59l21-15-26 2c-33 3-37-14-6-30 20-11 21-13 5-13-10 0-25-8-32-17-12-16-13-15-14 10 0 27-13 36-25 17-4-6-13-5-25 2-15 10-17 15-7 27 9 11 9 15 0 18-19 7-16 23 3 23 10 0 14 6 11 14-6 15 38 36 74 36 11 0 19 5 19 10 0 17-113 12-139-7zm262-181c45-30 43-38-6-17-20 8-52 15-71 15-34 0-42-5-69-41-7-10-23-20-37-23-22-5-21-4 3 7 24 10 28 16 23 39-5 28-5 28 49 28 59 0 65 5 38 27-16 12-15 13 7 2 14-7 42-23 63-37zm18-195c-8-10-7-17 2-26 10-11 8-11-10-2s-29 8-52-4c-17-8-36-15-43-15s14 13 47 29c71 35 70 35 56 18zm-126-57c-3-5-1-10 6-10s10-2 8-5c-3-2-15-2-28 2-17 4-19 8-9 14 18 12 31 11 23-1zm-49-7c-10-11-65-12-71-2-4 5 13 9 36 9s39-3 35-7zM636 451c-17-19-17-20 6-32 13-6 26-17 30-23 11-16 10-38-2-31-5 3-10-1-10-9 0-9-3-16-7-16-15 1-53 38-53 52-1 8-9 3-20-11l-20-23 36-29c25-20 31-29 20-29-10 0-16-6-13-12 8-27 36-10 95 58 34 40 62 75 62 78s-13 6-30 6-39 9-50 20c-24 24-23 24-44 1z"/><path d="M926 453c-11-11-6-23 9-23 8 0 15 4 15 9 0 13-16 22-24 14zM920 394c0-9 7-14 17-12 25 5 28 28 4 28-12 0-21-6-21-16zM742 348c-27-27 2-122 36-116 14 3 17 15 17 63 0 52-3 60-20 63-11 1-26-3-33-10zM519 307c-10-17-6-25 27-53 46-39 50-40 64-14 6 11 7 20 2 20-4 0-25 15-45 34-36 33-38 33-48 13z"/><path d="M682 256c4-18 0-26-14-29-17-5-18-9-8-27 10-19 18-22 51-17 71 9 87 46 20 47-18 0-21 3-12 13 8 10 7 17-1 25-21 21-41 14-36-12zM468 253c-26-30-31-62-14-88 21-32 57-32 92-2 24 21 25 25 13 45-18 28-31 28-27 0 4-31-37-39-47-9-8 25 1 41 21 41 19 0 18 16-2 24-21 8-19 9-36-11zM1260 105V20h55c51 0 55 2 55 24 0 14-21 49-52 85-28 34-53 61-55 61-1 0-3-38-3-85zM1380 35c0-8 7-15 16-15 14 0 14 3 4 15-7 8-14 15-16 15s-4-7-4-15z"/></g><g fill="#395e79"><path d="M867 963c-29-12-131-121-452-484C187 222 0 9 0 5c0-3 94-5 210-5h210v226l256 313c141 172 258 310 261 307 3-2 119-141 259-308l253-303 1-117V0h216c203 0 216 1 203 17-8 9-193 220-412 468-278 314-410 457-439 473-48 26-97 27-151 5z"/><path d="M908 749c-16-27-16-33-3-59 22-42 30-43 51-5 17 33 18 37 2 62-22 37-30 38-50 2zM1010 675c-11-13-10-15 2-10 16 6 45-21 34-32-3-3-17-1-30 7-48 25-78-17-38-53 21-19 42-22 42-7 0 6-7 10-15 10s-15 4-15 10 10 6 27-1c14-5 32-8 40-5 21 8 15 51-10 75-21 19-25 20-37 6zM798 643c-14-17-12-21 27-50l43-31 23 24c18 20 20 28 11 46-6 13-11 17-11 9-1-11-4-11-16-1s-15 10-15-4c0-22-16-20-33 4-13 19-15 19-29 3zM1048 577l-37-32 25-28c17-20 30-27 42-22 15 6 14 8-5 16-13 4-23 14-23 20 0 8 4 8 15-1 8-6 19-9 26-5 8 6 7 10-2 16-11 6-11 11-2 20 15 15 33 3 33-24 1-20 2-20 11-4 8 13 5 24-11 47-12 17-24 30-28 30-4-1-24-15-44-33zM749 576c-35-17-38-69-6-91 31-20 75-3 84 33 11 47-34 80-78 58zm39-28c16-16 15-48-1-48-19 0-50 37-42 49 8 14 28 14 43-1zM905 550c-3-5 0-10 7-10 7-1 2-7-12-15-24-14-23-14 28-15 28 0 52 5 52 10 0 6-4 10-10 10-5 0-10 7-10 15 0 17-45 21-55 5zM1117 504c-37-34-38-36-22-60 9-14 28-27 44-30 22-5 28-11 28-34 0-38 19-60 53-60 33 0 53 21 53 55 0 33-20 55-50 55-13 0-23 5-22 13 3 26-3 43-24 69l-22 27-38-35zm60-39c-8-20-32-29-54-21-15 6-13 10 12 31 31 24 53 19 42-10zm73-78c0-19-21-37-42-37s-24 20-6 38c16 16 48 15 48-1zM861 483c-23-16-23-17-5-24 16-6 14-8-8-8-29-1-40-21-12-21 14 0 14-3 3-16-10-13-10-17 1-24 10-6 8-14-9-38-11-17-21-35-21-40 0-6 23-26 51-45 46-31 54-33 81-23 25 9 29 15 24 38-5 28-5 28 52 28l57 1-25 21-25 21 25-8c23-7 140-85 127-85-3 0-26 9-52 20-65 28-110 26-131-5-16-24-66-55-89-55-6 0-22 11-35 25s-27 25-32 25c-4 0-19-18-33-40-30-48-77-74-117-66s-28-6 40-48c159-96 312-82 470 43 51 41 52 42 36 66-9 14-23 25-30 25-8 0-14 5-14 12 0 19-44 78-62 84-10 3-18 11-18 17-1 7-22 36-49 65-44 50-49 53-64 37-23-22-21-41 6-60l22-16-27 7c-22 5-28 3-28-10 0-9 10-21 23-26 19-7 19-9 3-9-10-1-25-9-32-18-12-16-13-15-14 10 0 27-13 36-25 17-4-6-13-5-25 2-15 10-17 15-7 27 9 11 9 15 0 18-19 7-16 23 3 23 10 0 14 6 11 14-6 15 38 36 74 36 11 0 19 5 19 10 0 17-113 12-139-7zM643 451c-10-15-9-20 2-25 8-3 22-21 32-41 19-36 19-36 38-16 10 12 13 21 7 21-7 0-12 5-12 10 0 6 7 10 16 8 10-2 19 3 21 10 3 8-6 12-26 12s-35 7-43 20c-16 25-20 25-35 1z"/><path d="M926 453c-11-11-6-23 9-23 8 0 15 4 15 9 0 13-16 22-24 14zM920 394c0-9 7-14 17-12 25 5 28 28 4 28-12 0-21-6-21-16zM575 369c-10-10-14-19-9-19s23-11 39-25c23-19 27-26 16-34-7-5-9-11-4-14 6-4 22 7 37 22 22 23 26 34 20 53l-8 23-5-22c-6-23-6-23-37 7-31 29-32 29-49 9zM742 348c-27-27 2-122 36-116 14 3 17 15 17 63 0 52-3 60-20 63-11 1-26-3-33-10zM1257 321c-33-26-35-30-22-49 10-14 22-19 37-15 18 4 20 2 8-6-8-5-11-13-8-16 4-4 23 5 42 20 42 32 46 24 12-26-20-30-22-37-11-53 12-16 16-16 37-3 13 8 36 18 52 21 27 7 27 8 12 25-10 11-25 17-37 14-13-4-19 0-19 11 0 9 5 16 10 16 6 0 3 11-6 26-12 17-20 22-27 15-6-6-27-11-46-11h-35l29 30c36 38 19 39-28 1zM521 306c-10-12-6-21 26-50 36-32 39-34 56-18 14 12 15 17 5 20-7 3-27 18-44 34-27 25-33 27-43 14z"/><path d="M682 256c4-18 0-26-14-29-17-5-18-9-8-27 10-19 18-22 51-17 71 9 87 46 20 47-18 0-21 3-12 13 8 10 7 17-1 25-21 21-41 14-36-12zM467 242c-37-41-4-111 46-98 30 7 56 51 39 68-9 9-12 7-12-10 0-27-25-39-45-22-29 24-17 67 18 61 5-1 6 3 2 9-10 15-30 12-48-8zM1260 108c0-87 0-88 25-88 24 0 25 3 25 58 0 46-5 63-25 87l-24 30-1-87zM572 150c-16-21-22-43-22-80 0-49 1-50 30-50 20 0 30 5 30 15 0 8 4 15 10 15 5 0 7-7 4-15-5-11 1-15 20-15 26 0 27 1 25 65-2 55-5 67-25 80-33 22-47 19-72-15zM1219 161c-21-17-22-22-11-47l12-29-19 23c-19 22-21 22-46 6s-25-17-8-38c38-45 53-56 78-56 23 0 25 2 14 21-8 15-8 19 0 15 8-5 11 13 11 58 0 36-2 66-4 66s-14-8-27-19zM680 91c0-55 8-71 36-71 20 0 24 5 24 32v31l-27-24-27-24 22 29c23 30 22 40-9 56-17 10-19 7-19-29zM1320 73c0-50 2-53 25-53 33 0 33 34 0 75l-25 30V73zM503 66l-32-41 30-3c39-4 41-2 37 46l-3 40-32-42zM750 65c0-28 12-32 29-11 10 12 8 17-8 26-19 9-21 8-21-15zM1090 80c-12-7-11-12 5-32l20-23-21 18c-27 22-34 22-34-4 0-16 5-20 28-17 22 2 28 8 30 36 3 33-3 38-28 22zM1130 50c0-25 4-30 25-30h26l-23 30c-12 17-23 30-25 30s-3-13-3-30zM775 40c-18-20-17-20 8-20 20 0 27 5 27 20 0 11-4 20-8 20-5 0-17-9-27-20zM822 44c4-21 48-33 48-14 0 7-7 10-15 6-8-3-14 0-12 6 1 6-4 13-11 15-9 4-13-1-10-13zM1013 48c-26-12-30-28-9-28 25 0 46 12 46 26 0 16-7 17-37 2z"/></g><g fill="#ac4834"><path d="M867 963c-29-12-131-121-452-484C187 222 0 9 0 5c0-3 94-5 210-5h210v227l236 289c130 159 246 299 258 312l22 22 257-307 257-308V0h216c203 0 216 1 203 17-8 9-193 220-412 468-278 314-410 457-439 473-48 26-97 27-151 5z"/><path d="M913 749l-21-32 20-34 21-34 18 31c23 37 23 38 0 73l-18 28-20-32zM1010 675c-11-13-10-15 2-10 16 6 45-21 34-32-3-3-17-1-30 7-48 25-78-17-38-53 21-19 42-22 42-7 0 6-7 10-15 10s-15 4-15 10 10 6 27-1c14-5 32-8 40-5 21 8 15 51-10 75-21 19-25 20-37 6zM798 643c-14-17-12-21 27-50l43-31 23 24c18 20 20 28 11 46-6 13-11 17-11 9-1-11-4-11-16-1s-15 10-15-4c0-22-16-20-33 4-13 19-15 19-29 3zM1048 577l-37-32 25-28c17-20 30-27 42-22 15 6 14 8-5 16-13 4-23 14-23 20 0 8 4 8 15-1 8-6 19-9 26-5 8 6 7 10-2 16-11 6-11 11-2 20 15 15 33 3 33-24 1-20 2-20 11-4 8 13 5 24-11 47-12 17-24 30-28 30-4-1-24-15-44-33zM749 576c-35-17-38-69-6-91 31-20 75-3 84 33 11 47-34 80-78 58zm39-28c16-16 15-48-1-48-19 0-50 37-42 49 8 14 28 14 43-1zM905 550c-3-5 0-10 7-10 7-1 2-7-12-15-24-14-23-14 28-15 28 0 52 5 52 10 0 6-4 10-10 10-5 0-10 7-10 15 0 17-45 21-55 5zM1117 504c-37-34-38-36-22-60 9-14 28-27 44-30 22-5 28-11 28-34 0-38 19-60 53-60 33 0 53 21 53 55 0 33-20 55-50 55-13 0-23 5-22 13 3 26-3 43-24 69l-22 27-38-35zm60-39c-8-20-32-29-54-21-15 6-13 10 12 31 31 24 53 19 42-10zm73-78c0-19-21-37-42-37s-24 20-6 38c16 16 48 15 48-1zM861 483c-23-16-23-17-5-24 16-6 14-8-8-8-29-1-40-21-12-21 14 0 14-3 3-16-10-13-10-17 1-24 10-6 8-14-9-38-11-17-21-35-21-40 0-6 23-26 51-45 46-31 54-33 81-23 25 9 29 15 24 38-5 28-5 28 52 28l57 1-25 21-25 21 25-8c14-4 49-25 79-46 30-22 56-37 59-34 8 8-42 75-60 81-10 3-18 11-18 17-1 7-22 36-49 65-44 50-49 53-64 37-23-22-21-41 6-60l22-16-27 7c-22 5-28 3-28-10 0-9 10-21 23-26 19-7 19-9 3-9-10-1-25-9-32-18-12-16-13-15-14 10 0 27-13 36-25 17-4-6-13-5-25 2-15 10-17 15-7 27 9 11 9 15 0 18-19 7-16 23 3 23 10 0 14 6 11 14-6 15 38 36 74 36 11 0 19 5 19 10 0 17-113 12-139-7zM643 451c-10-15-9-20 2-25 8-3 22-21 32-41 19-36 19-36 38-16 10 12 13 21 7 21-7 0-12 5-12 10 0 6 7 10 16 8 10-2 19 3 21 10 3 8-6 12-26 12s-35 7-43 20c-16 25-20 25-35 1z"/><path d="M926 453c-11-11-6-23 9-23 8 0 15 4 15 9 0 13-16 22-24 14zM920 394c0-9 7-14 17-12 25 5 28 28 4 28-12 0-21-6-21-16zM575 369c-10-10-14-19-9-19s23-11 39-25c23-19 27-26 16-34-7-5-9-11-4-14 6-4 22 7 37 22 22 23 26 34 20 53l-8 23-5-22c-6-23-6-23-37 7-31 29-32 29-49 9zM742 348c-27-27 2-122 36-116 14 3 17 15 17 63 0 52-3 60-20 63-11 1-26-3-33-10zM1257 321c-33-26-35-30-22-49 10-14 22-19 37-15 18 4 20 2 8-6-8-5-11-13-8-16 4-4 23 5 42 20 42 32 46 24 12-26-20-30-22-37-11-53 12-16 16-16 37-3 13 8 36 18 52 21 27 7 27 8 12 25-10 11-25 17-37 14-13-4-19 0-19 11 0 9 5 16 10 16 6 0 3 11-6 26-12 17-20 22-27 15-6-6-27-11-46-11h-35l29 30c36 38 19 39-28 1zM521 306c-10-12-6-21 26-50 36-32 39-34 56-18 14 12 15 17 5 20-7 3-27 18-44 34-27 25-33 27-43 14z"/><path d="M1000 280c-11-11-20-24-20-28 0-8-57-32-77-32-5 0-23 12-39 26l-28 27-15-24c-32-50-82-89-113-89-39 0-27-17 40-53 82-45 164-61 236-47 71 14 164 59 224 108l43 35-23 22c-24 23-155 75-189 75-10 0-28-9-39-20z"/><path d="M682 256c4-18 0-26-14-29-17-5-18-9-8-27 10-19 18-22 51-17 71 9 87 46 20 47-18 0-21 3-12 13 8 10 7 17-1 25-21 21-41 14-36-12zM467 242c-37-41-4-111 46-98 30 7 56 51 39 68-9 9-12 7-12-10 0-27-25-39-45-22-29 24-17 67 18 61 5-1 6 3 2 9-10 15-30 12-48-8zM621 120V55l22 43 21 42-22 22-22 22 1-64zM1260 102c0-81 0-82 25-82 24 0 25 3 25 58 0 49-4 62-25 82l-25 23v-81zM571 144c-15-19-21-41-21-75 0-46 2-49 25-49 24 0 25 2 25 75 0 41-2 75-4 75-3 0-14-12-25-26zM1217 156c-18-14-18-16 3-55 11-23 23-41 25-41 3 0 5 25 5 55 0 58-4 63-33 41zM680 85c0-25 1-45 3-45s13 13 25 29l21 29-24 16-25 16V85zM1150 104c-11-13-10-19 8-37l22-21v37c0 40-10 46-30 21zM642 65l-22-45h25c23 0 25 4 25 45 0 25-1 45-3 45s-13-20-25-45zM1320 67c0-43 2-47 25-47 20 0 25 5 25 23 0 13-11 34-25 47l-25 23V67zM516 78c-22-32-20-58 4-58 17 0 20 7 20 40 0 46-3 48-24 18zM1200 63c0-36 3-43 20-43 24 0 24 5 0 50l-19 35-1-42zM750 59c0-18 2-19 15-9 15 12 12 30-6 30-5 0-9-10-9-21zM1087 73c-8-7 11-33 24-33 5 0 9 9 9 20 0 19-20 27-33 13zM706 45c-16-24-16-25 9-25 20 0 25 5 25 25 0 14-4 25-9 25s-16-11-25-25zM1130 47c0-20 5-27 20-27 11 0 20 4 20 8 0 5-9 17-20 27-20 18-20 17-20-8zM775 40c-18-20-17-20 8-20 20 0 27 5 27 20 0 11-4 20-8 20-5 0-17-9-27-20zM1060 40c0-14 7-20 22-20 20 0 21 1 3 20-10 11-20 20-22 20-1 0-3-9-3-20z"/></g><g fill="#dc6344"><path d="M867 963c-29-12-131-121-452-484C187 222 0 9 0 5c0-3 94-5 210-5h210v227l236 289c130 159 246 299 258 312l22 22 257-307 257-308V0h216c203 0 216 1 203 17-8 9-193 220-412 468-278 314-410 457-439 473-48 26-97 27-151 5z"/><path d="M913 749l-21-32 20-34 21-34 18 31c23 37 23 38 0 73l-18 28-20-32zM1010 675c-11-13-10-15 2-10 16 6 45-21 34-32-3-3-17-1-30 7-48 25-78-17-38-53 21-19 42-22 42-7 0 6-7 10-15 10s-15 4-15 10 10 6 27-1c14-5 32-8 40-5 21 8 15 51-10 75-21 19-25 20-37 6zM798 643c-14-17-12-21 27-50l43-31 23 24c18 20 20 28 11 46-6 13-11 17-11 9-1-11-4-11-16-1s-15 10-15-4c0-22-16-20-33 4-13 19-15 19-29 3zM1048 577l-37-32 25-28c17-20 30-27 42-22 15 6 14 8-5 16-13 4-23 14-23 20 0 8 4 8 15-1 8-6 19-9 26-5 8 6 7 10-2 16-11 6-11 11-2 20 15 15 33 3 33-24 1-20 2-20 11-4 8 13 5 24-11 47-12 17-24 30-28 30-4-1-24-15-44-33zM749 576c-35-17-38-69-6-91 31-20 75-3 84 33 11 47-34 80-78 58zm39-28c16-16 15-48-1-48-19 0-50 37-42 49 8 14 28 14 43-1zM919 558c-8-35-7-48 4-47 18 1 54 17 40 18-7 1-12 6-10 13 2 10-31 26-34 16zM1117 504c-37-34-38-36-22-60 9-14 28-27 44-30 22-5 28-11 28-34 0-38 19-60 53-60 33 0 53 21 53 55 0 33-20 55-50 55-13 0-23 5-22 13 3 26-3 43-24 69l-22 27-38-35zm60-39c-8-20-32-29-54-21-15 6-13 10 12 31 31 24 53 19 42-10zm73-78c0-19-21-37-42-37s-24 20-6 38c16 16 48 15 48-1zM875 485l-30-13 47-1c26-1 50 4 53 9 4 6 15 8 26 5 11-4 19-2 19 4 0 15-79 13-115-4zM643 451c-10-15-9-20 2-25 8-3 22-21 32-41 19-36 19-36 38-16 10 12 13 21 7 21-7 0-12 5-12 10 0 6 7 10 16 8 10-2 19 3 21 10 3 8-6 12-26 12s-35 7-43 20c-16 25-20 25-35 1zM990 455c-10-12-10-18 0-30 16-19 99-67 110-63 10 3-77 108-90 108-4 0-13-7-20-15zM830 440c0-5 15-10 34-10s38 5 41 10c4 6-10 10-34 10-23 0-41-4-41-10zM835 400c3-5 20-10 36-10 18 0 28 4 24 10-3 6-20 10-36 10-18 0-28-4-24-10zM920 400c0-5 7-10 15-10s15 5 15 10c0 6-7 10-15 10s-15-4-15-10zM970 386c0-9 19-20 50-29 28-8 75-32 105-53 30-20 57-35 60-33 2 3-9 22-26 42-21 25-39 37-56 37-14 0-40 8-57 19-47 29-76 35-76 17zM575 369c-10-10-14-19-9-19s23-11 39-25c23-19 27-26 16-34-7-5-9-11-4-14 6-4 22 7 37 22 22 23 26 34 20 53l-8 23-5-22c-6-23-6-23-37 7-31 29-32 29-49 9zM840 350c0-11-4-20-10-20-24 0-8-38 23-53 17-9 39-22 47-28 10-7 23-7 42 0l27 10-17 51c-10 31-19 47-25 41s-5-21 1-40c6-17 7-31 3-31-11 0-21 26-21 55 0 23-17 35-51 35-12 0-19-7-19-20zM760 352c-24-8-30-25-24-57 16-76 64-76 64 0 0 45-15 66-40 57zM967 337c-8-22 1-27 57-27 45 0 49 2 35 15-23 23-85 31-92 12zM1257 321c-33-26-35-30-22-49 10-14 22-19 37-15 18 4 20 2 8-6-8-5-11-13-8-16 4-4 23 5 42 20 42 32 46 24 12-26-20-30-22-37-11-53 12-16 16-16 37-3 13 8 36 18 52 21 27 7 27 8 12 25-10 11-25 17-37 14-13-4-19 0-19 11 0 9 5 16 10 16 6 0 3 11-6 26-12 17-20 22-27 15-6-6-27-11-46-11h-35l29 30c36 38 19 39-28 1zM521 306c-10-12-6-21 26-50 36-32 39-34 56-18 14 12 15 17 5 20-7 3-27 18-44 34-27 25-33 27-43 14z"/><path d="M1000 280c-11-11-20-24-20-28 0-8-57-32-77-32-5 0-23 12-39 26l-28 27-15-24c-32-50-82-89-113-89-39 0-27-17 40-53 82-45 164-61 236-47 71 14 164 59 224 108l43 35-23 22c-24 23-155 75-189 75-10 0-28-9-39-20zM687 273c-14-13-6-33 13-33 11 0 20 4 20 9 0 13-26 32-33 24zM467 242c-37-41-4-111 46-98 30 7 56 51 39 68-9 9-12 7-12-10 0-27-25-39-45-22-29 24-17 67 18 61 5-1 6 3 2 9-10 15-30 12-48-8z"/><path d="M660 216c0-28 26-38 69-26 62 16 63 33 2 29-28-2-51-1-51 4 0 4-4 7-10 7-5 0-10-6-10-14zM621 120V55l22 43 21 42-22 22-22 22 1-64zM1260 102c0-81 0-82 25-82 24 0 25 3 25 58 0 49-4 62-25 82l-25 23v-81zM571 144c-15-19-21-41-21-75 0-46 2-49 25-49 24 0 25 2 25 75 0 41-2 75-4 75-3 0-14-12-25-26zM1217 156c-18-14-18-16 3-55 11-23 23-41 25-41 3 0 5 25 5 55 0 58-4 63-33 41zM680 85c0-25 1-45 3-45s13 13 25 29l21 29-24 16-25 16V85zM1150 104c-11-13-10-19 8-37l22-21v37c0 40-10 46-30 21zM642 65l-22-45h25c23 0 25 4 25 45 0 25-1 45-3 45s-13-20-25-45zM1320 67c0-43 2-47 25-47 20 0 25 5 25 23 0 13-11 34-25 47l-25 23V67zM516 78c-22-32-20-58 4-58 17 0 20 7 20 40 0 46-3 48-24 18zM1200 63c0-36 3-43 20-43 24 0 24 5 0 50l-19 35-1-42zM750 59c0-18 2-19 15-9 15 12 12 30-6 30-5 0-9-10-9-21zM1087 73c-8-7 11-33 24-33 5 0 9 9 9 20 0 19-20 27-33 13zM706 45c-16-24-16-25 9-25 20 0 25 5 25 25 0 14-4 25-9 25s-16-11-25-25zM1130 47c0-20 5-27 20-27 11 0 20 4 20 8 0 5-9 17-20 27-20 18-20 17-20-8zM775 40c-18-20-17-20 8-20 20 0 27 5 27 20 0 11-4 20-8 20-5 0-17-9-27-20zM1060 40c0-14 7-20 22-20 20 0 21 1 3 20-10 11-20 20-22 20-1 0-3-9-3-20z"/></g><g fill="#4e92b7"><path d="M867 963c-29-12-131-121-452-484C187 222 0 9 0 5c0-3 94-5 210-5h210v227l236 289c130 159 246 299 258 312l22 22 257-307 257-308V0h216c203 0 216 1 203 17-8 9-193 220-412 468-278 314-410 457-439 473-48 26-97 27-151 5z"/><path d="M913 749l-21-32 20-34 21-34 18 31c23 37 23 38 0 73l-18 28-20-32zM1010 675c-11-13-10-15 2-10 16 6 45-21 34-32-3-3-17-1-30 7-48 25-78-17-38-53 21-19 42-22 42-7 0 6-7 10-15 10s-15 4-15 10 10 6 27-1c14-5 32-8 40-5 21 8 15 51-10 75-21 19-25 20-37 6zM798 643c-14-17-12-21 27-50l43-31 23 24c18 20 20 28 11 46-6 13-11 17-11 9-1-11-4-11-16-1s-15 10-15-4c0-22-16-20-33 4-13 19-15 19-29 3zM1048 577l-37-32 25-28c17-20 30-27 42-22 15 6 14 8-5 16-13 4-23 14-23 20 0 8 4 8 15-1 8-6 19-9 26-5 8 6 7 10-2 16-11 6-11 11-2 20 15 15 33 3 33-24 1-20 2-20 11-4 8 13 5 24-11 47-12 17-24 30-28 30-4-1-24-15-44-33zM749 576c-35-17-38-69-6-91 31-20 75-3 84 33 11 47-34 80-78 58zm39-28c16-16 15-48-1-48-19 0-50 37-42 49 8 14 28 14 43-1zM1117 504c-37-34-38-36-22-60 9-14 28-27 44-30 22-5 28-11 28-34 0-38 19-60 53-60 33 0 53 21 53 55 0 33-20 55-50 55-13 0-23 5-22 13 3 26-3 43-24 69l-22 27-38-35zm60-39c-8-20-32-29-54-21-15 6-13 10 12 31 31 24 53 19 42-10zm73-78c0-19-21-37-42-37s-24 20-6 38c16 16 48 15 48-1zM643 451c-10-15-9-20 2-25 8-3 22-21 32-41 19-36 19-36 38-16 10 12 13 21 7 21-7 0-12 5-12 10 0 6 7 10 16 8 10-2 19 3 21 10 3 8-6 12-26 12s-35 7-43 20c-16 25-20 25-35 1zM970 386c0-10 16-20 46-27 25-7 73-30 106-52 32-21 61-37 64-34 10 10-64 77-86 77-12 0-37 8-54 19-48 29-76 35-76 17zM575 369c-10-10-14-19-9-19s23-11 39-25c23-19 27-26 16-34-7-5-9-11-4-14 6-4 22 7 37 22 22 23 26 34 20 53l-8 23-5-22c-6-23-6-23-37 7-31 29-32 29-49 9zM967 337c-8-22 1-27 57-27 45 0 49 2 35 15-23 23-85 31-92 12zM1257 321c-33-26-35-30-22-49 10-14 22-19 37-15 18 4 20 2 8-6-8-5-11-13-8-16 4-4 23 5 42 20 42 32 46 24 12-26-20-30-22-37-11-53 12-16 16-16 37-3 13 8 36 18 52 21 27 7 27 8 12 25-10 11-25 17-37 14-13-4-19 0-19 11 0 9 5 16 10 16 6 0 3 11-6 26-12 17-20 22-27 15-6-6-27-11-46-11h-35l29 30c36 38 19 39-28 1zM521 306c-10-12-6-21 26-50 36-32 39-34 56-18 14 12 15 17 5 20-7 3-27 18-44 34-27 25-33 27-43 14zM1000 280c-11-11-20-24-20-28 0-8-57-32-77-32-5 0-23 12-39 26l-28 27-15-24c-32-50-82-89-113-89-39 0-27-17 40-53 82-45 164-61 236-47 71 14 164 59 224 108l43 35-23 22c-24 23-155 75-189 75-10 0-28-9-39-20zM467 242c-37-41-4-111 46-98 30 7 56 51 39 68-9 9-12 7-12-10 0-27-25-39-45-22-29 24-17 67 18 61 5-1 6 3 2 9-10 15-30 12-48-8zM621 120V55l22 43 21 42-22 22-22 22 1-64zM1260 102c0-81 0-82 25-82 24 0 25 3 25 58 0 49-4 62-25 82l-25 23v-81zM571 144c-15-19-21-41-21-75 0-46 2-49 25-49 24 0 25 2 25 75 0 41-2 75-4 75-3 0-14-12-25-26zM1217 156c-18-14-18-16 3-55 11-23 23-41 25-41 3 0 5 25 5 55 0 58-4 63-33 41zM680 85c0-25 1-45 3-45s13 13 25 29l21 29-24 16-25 16V85zM1150 104c-11-13-10-19 8-37l22-21v37c0 40-10 46-30 21zM642 65l-22-45h25c23 0 25 4 25 45 0 25-1 45-3 45s-13-20-25-45zM1320 67c0-43 2-47 25-47 20 0 25 5 25 23 0 13-11 34-25 47l-25 23V67zM516 78c-22-32-20-58 4-58 17 0 20 7 20 40 0 46-3 48-24 18zM1200 63c0-36 3-43 20-43 24 0 24 5 0 50l-19 35-1-42zM750 59c0-18 2-19 15-9 15 12 12 30-6 30-5 0-9-10-9-21zM1087 73c-8-7 11-33 24-33 5 0 9 9 9 20 0 19-20 27-33 13zM706 45c-16-24-16-25 9-25 20 0 25 5 25 25 0 14-4 25-9 25s-16-11-25-25zM1130 47c0-20 5-27 20-27 11 0 20 4 20 8 0 5-9 17-20 27-20 18-20 17-20-8zM775 40c-18-20-17-20 8-20 20 0 27 5 27 20 0 11-4 20-8 20-5 0-17-9-27-20zM1060 40c0-14 7-20 22-20 20 0 21 1 3 20-10 11-20 20-22 20-1 0-3-9-3-20z"/></g><g fill="#ed9373"><path d="M867 963c-29-12-131-121-452-484C187 222 0 9 0 5c0-3 94-5 210-5h210v231l251 307c138 169 255 308 259 310 4 1 123-135 264-304l256-306V0h216c203 0 216 1 203 17-8 9-193 220-412 468-278 314-410 457-439 473-48 26-97 27-151 5z"/><path d="M915 751c-17-34-14-61 10-81 11-9 17-5 29 19 15 28 15 33-3 62l-19 31-17-31zM1010 675c-11-13-10-15 2-10 16 6 45-21 34-32-3-3-17-1-30 7-48 25-78-17-38-53 21-19 42-22 42-7 0 6-7 10-15 10s-15 4-15 10 10 6 27-1c14-5 32-8 40-5 21 8 15 51-10 75-21 19-25 20-37 6zM798 643c-14-17-12-21 27-50l43-31 23 24c18 20 20 28 11 46-6 13-11 17-11 9-1-11-4-11-16-1s-15 10-15-4c0-22-16-20-33 4-13 19-15 19-29 3zM1048 577l-37-32 25-28c17-20 30-27 42-22 15 6 14 8-5 16-13 4-23 14-23 20 0 8 4 8 15-1 8-6 19-9 26-5 8 6 7 10-2 16-11 6-11 11-2 20 15 15 33 3 33-24 1-20 2-20 11-4 8 13 5 24-11 47-12 17-24 30-28 30-4-1-24-15-44-33zM749 576c-35-17-38-69-6-91 31-20 75-3 84 33 11 47-34 80-78 58zm39-28c16-16 15-48-1-48-19 0-50 37-42 49 8 14 28 14 43-1zM1117 504c-37-34-38-36-22-60 9-14 28-27 44-30 22-5 28-11 28-34 0-38 19-60 53-60 33 0 53 21 53 55 0 33-20 55-50 55-13 0-23 5-22 13 3 26-3 43-24 69l-22 27-38-35zm60-39c-8-20-32-29-54-21-15 6-13 10 12 31 31 24 53 19 42-10zm73-78c0-19-21-37-42-37s-24 20-6 38c16 16 48 15 48-1zM643 451c-10-15-9-20 2-25 8-3 22-21 32-41 19-36 19-36 38-16 10 12 13 21 7 21-7 0-12 5-12 10 0 6 7 10 16 8 10-2 19 3 21 10 3 8-6 12-26 12s-35 7-43 20c-16 25-20 25-35 1zM970 386c0-10 16-20 46-27 25-7 73-30 106-52 32-21 61-37 64-34 10 10-64 77-86 77-12 0-37 8-54 19-48 29-76 35-76 17zM575 369c-10-10-14-19-9-19s23-11 39-25c23-19 27-26 16-34-7-5-9-11-4-14 6-4 22 7 37 22 22 23 26 34 20 53l-8 23-5-22c-6-23-6-23-37 7-31 29-32 29-49 9zM967 337c-8-22 1-27 57-27 45 0 49 2 35 15-23 23-85 31-92 12zM1257 321c-33-26-35-30-22-49 10-14 22-19 37-15 18 4 20 2 8-6-8-5-11-13-8-16 4-4 23 5 42 20 42 32 46 24 12-26-20-30-22-37-11-53 12-16 16-16 37-3 13 8 36 18 52 21 27 7 27 8 12 25-10 11-25 17-37 14-13-4-19 0-19 11 0 9 5 16 10 16 6 0 3 11-6 26-12 17-20 22-27 15-6-6-27-11-46-11h-35l29 30c36 38 19 39-28 1zM521 306c-10-12-6-21 26-50 36-32 39-34 56-18 14 12 15 17 5 20-7 3-27 18-44 34-27 25-33 27-43 14zM1014 292c-6-4-16-17-23-29-15-30-80-50-110-34-11 7-21 16-21 21 0 22-37 8-53-20-23-38-72-72-104-72h-26l24-19c13-11 49-31 79-47 48-24 66-27 150-27 87 0 101 3 166 33 40 19 89 51 110 73 37 38 37 39 19 59-10 11-23 20-29 20s-38 11-71 25c-62 25-92 30-111 17zM467 242c-37-41-4-111 46-98 30 7 56 51 39 68-9 9-12 7-12-10 0-27-25-39-45-22-29 24-17 67 18 61 5-1 6 3 2 9-10 15-30 12-48-8zM1260 103c0-82 0-83 25-83 24 0 25 3 25 54 0 44-5 60-25 83l-24 28-1-82zM576 148c-10-14-16-44-16-75 0-46 3-53 20-53 18 0 20 7 20 75 0 41-2 75-4 75-3 0-12-10-20-22zM621 113V55l21 42c18 35 19 45 8 57-22 28-30 17-29-41zM1217 153c-14-16-14-21 3-53l19-35 1 53c0 28-2 52-3 52-2 0-11-8-20-17zM680 84c0-26 1-45 3-43 1 2 12 16 25 30l23 26-26 17-25 16V84zM1151 106c-9-10-7-19 9-37l19-24 1 38c0 39-10 47-29 23zM642 65l-22-45h25c23 0 25 4 25 45 0 25-1 45-3 45s-13-20-25-45zM516 75c-22-33-20-55 4-55 17 0 20 7 20 40 0 22-2 40-4 40s-11-11-20-25zM1200 63c0-36 3-43 20-43 24 0 24 5 0 50l-19 35-1-42zM1330 63c0-36 3-43 20-43 26 0 26 30 0 61l-19 24-1-42zM750 59c0-18 2-19 15-9 15 12 12 30-6 30-5 0-9-10-9-21zM1086 71c-3-5 1-11 9-15 9-3 15 0 15 9 0 16-16 20-24 6zM707 45c-17-24-17-25 3-25 15 0 20 6 20 25 0 30-1 30-23 0zM1130 46c0-19 5-26 20-26 17 0 19 3 10 19-16 32-30 34-30 7zM1060 40c0-14 7-20 22-20 20 0 21 1 3 20-10 11-20 20-22 20-1 0-3-9-3-20zM774 35c-19-14-18-14 4-15 13 0 22 6 22 15 0 19-1 19-26 0z"/></g><g fill="#70b1d5"><path d="M867 963c-29-12-131-121-452-484C187 222 0 9 0 5c0-3 94-5 210-5h210v231l251 307c138 169 255 308 259 310 4 1 123-135 264-304l256-306V0h216c203 0 216 1 203 17-8 9-193 220-412 468-278 314-410 457-439 473-48 26-97 27-151 5z"/><path d="M915 751c-17-34-14-61 10-81 11-9 17-5 29 19 15 28 15 33-3 62l-19 31-17-31zM1010 675c-11-13-10-15 2-10 16 6 45-21 34-32-3-3-17-1-30 7-48 25-78-17-38-53 21-19 42-22 42-7 0 6-7 10-15 10s-15 4-15 10 10 6 27-1c14-5 32-8 40-5 21 8 15 51-10 75-21 19-25 20-37 6zM798 643c-14-17-12-21 27-50l43-31 23 24c18 20 20 28 11 46-6 13-11 17-11 9-1-11-4-11-16-1s-15 10-15-4c0-22-16-20-33 4-13 19-15 19-29 3zM1048 577l-37-32 25-28c17-20 30-27 42-22 15 6 14 8-5 16-13 4-23 14-23 20 0 8 4 8 15-1 8-6 19-9 26-5 8 6 7 10-2 16-11 6-11 11-2 20 15 15 33 3 33-24 1-20 2-20 11-4 8 13 5 24-11 47-12 17-24 30-28 30-4-1-24-15-44-33zM749 576c-35-17-38-69-6-91 31-20 75-3 84 33 11 47-34 80-78 58zm39-28c16-16 15-48-1-48-19 0-50 37-42 49 8 14 28 14 43-1zM1117 504c-37-34-38-36-22-60 9-14 28-27 44-30 22-5 28-11 28-34 0-38 19-60 53-60 33 0 53 21 53 55 0 33-20 55-50 55-13 0-23 5-22 13 3 26-3 43-24 69l-22 27-38-35zm60-39c-8-20-32-29-54-21-15 6-13 10 12 31 31 24 53 19 42-10zm73-78c0-19-21-37-42-37s-24 20-6 38c16 16 48 15 48-1zM643 451c-10-15-9-20 2-25 8-3 22-21 32-41 19-36 19-36 38-16 10 12 13 21 7 21-7 0-12 5-12 10 0 6 7 10 16 8 10-2 19 3 21 10 3 8-6 12-26 12s-35 7-43 20c-16 25-20 25-35 1zM575 369c-10-10-14-19-9-19s23-11 39-25c23-19 27-26 16-34-7-5-9-11-4-14 6-4 22 7 37 22 22 23 26 34 20 53l-8 23-5-22c-6-23-6-23-37 7-31 29-32 29-49 9zM967 337c-8-22 1-27 57-27 45 0 49 2 35 15-23 23-85 31-92 12zM1257 321c-33-26-35-30-22-49 10-14 22-19 37-15 18 4 20 2 8-6-8-5-11-13-8-16 4-4 23 5 42 20 42 32 46 24 12-26-20-30-22-37-11-53 12-16 16-16 37-3 13 8 36 18 52 21 27 7 27 8 12 25-10 11-25 17-37 14-13-4-19 0-19 11 0 9 5 16 10 16 6 0 3 11-6 26-12 17-20 22-27 15-6-6-27-11-46-11h-35l29 30c36 38 19 39-28 1zM521 306c-10-12-6-21 26-50 36-32 39-34 56-18 14 12 15 17 5 20-7 3-27 18-44 34-27 25-33 27-43 14zM1014 292c-6-4-16-17-23-29-15-30-80-50-110-34-11 7-21 16-21 21 0 22-37 8-53-20-23-38-72-72-104-72h-26l24-19c13-11 49-31 79-47 48-24 66-27 150-27 87 0 101 3 166 33 40 19 89 51 110 73 37 38 37 39 19 59-10 11-23 20-29 20s-38 11-71 25c-62 25-92 30-111 17zM467 242c-37-41-4-111 46-98 30 7 56 51 39 68-9 9-12 7-12-10 0-27-25-39-45-22-29 24-17 67 18 61 5-1 6 3 2 9-10 15-30 12-48-8zM1260 103c0-82 0-83 25-83 24 0 25 3 25 54 0 44-5 60-25 83l-24 28-1-82zM576 148c-10-14-16-44-16-75 0-46 3-53 20-53 18 0 20 7 20 75 0 41-2 75-4 75-3 0-12-10-20-22zM621 113V55l21 42c18 35 19 45 8 57-22 28-30 17-29-41zM1217 153c-14-16-14-21 3-53l19-35 1 53c0 28-2 52-3 52-2 0-11-8-20-17zM680 84c0-26 1-45 3-43 1 2 12 16 25 30l23 26-26 17-25 16V84zM1151 106c-9-10-7-19 9-37l19-24 1 38c0 39-10 47-29 23zM642 65l-22-45h25c23 0 25 4 25 45 0 25-1 45-3 45s-13-20-25-45zM516 75c-22-33-20-55 4-55 17 0 20 7 20 40 0 22-2 40-4 40s-11-11-20-25zM1200 63c0-36 3-43 20-43 24 0 24 5 0 50l-19 35-1-42zM1330 63c0-36 3-43 20-43 26 0 26 30 0 61l-19 24-1-42zM750 59c0-18 2-19 15-9 15 12 12 30-6 30-5 0-9-10-9-21zM1086 71c-3-5 1-11 9-15 9-3 15 0 15 9 0 16-16 20-24 6zM707 45c-17-24-17-25 3-25 15 0 20 6 20 25 0 30-1 30-23 0zM1130 46c0-19 5-26 20-26 17 0 19 3 10 19-16 32-30 34-30 7zM1060 40c0-14 7-20 22-20 20 0 21 1 3 20-10 11-20 20-22 20-1 0-3-9-3-20zM774 35c-19-14-18-14 4-15 13 0 22 6 22 15 0 19-1 19-26 0z"/></g><g fill="#d1b9b8"><path d="M1010 675c-11-13-10-15 2-10 16 6 45-21 34-32-3-3-17-1-30 7-48 25-78-17-38-53 21-19 42-22 42-7 0 6-7 10-15 10s-15 4-15 10 10 6 27-1c14-5 32-8 40-5 21 8 15 51-10 75-21 19-25 20-37 6zM798 643c-14-17-12-21 27-50l43-31 23 24c18 20 20 28 11 46-6 13-11 17-11 9-1-11-4-11-16-1s-15 10-15-4c0-22-16-20-33 4-13 19-15 19-29 3zM1048 577l-37-32 25-28c17-20 30-27 42-22 15 6 14 8-5 16-13 4-23 14-23 20 0 8 4 8 15-1 8-6 19-9 26-5 8 6 7 10-2 16-11 6-11 11-2 20 15 15 33 3 33-24 1-20 2-20 11-4 8 13 5 24-11 47-12 17-24 30-28 30-4-1-24-15-44-33zM749 576c-35-17-38-69-6-91 31-20 75-3 84 33 11 47-34 80-78 58zm39-28c16-16 15-48-1-48-19 0-50 37-42 49 8 14 28 14 43-1zM1117 504c-37-34-38-36-22-60 9-14 28-27 44-30 22-5 28-11 28-34 0-38 19-60 53-60 33 0 53 21 53 55 0 33-20 55-50 55-13 0-23 5-22 13 3 26-3 43-24 69l-22 27-38-35zm60-39c-8-20-32-29-54-21-15 6-13 10 12 31 31 24 53 19 42-10zm73-78c0-19-21-37-42-37s-24 20-6 38c16 16 48 15 48-1zM643 451c-10-15-9-20 2-25 8-3 22-21 32-41 19-36 19-36 38-16 10 12 13 21 7 21-7 0-12 5-12 10 0 6 7 10 16 8 10-2 19 3 21 10 3 8-6 12-26 12s-35 7-43 20c-16 25-20 25-35 1zM575 369c-10-10-14-19-9-19s23-11 39-25c23-19 27-26 16-34-7-5-9-11-4-14 6-4 22 7 37 22 22 23 26 34 20 53l-8 23-5-22c-6-23-6-23-37 7-31 29-32 29-49 9zM967 337c-8-22 1-27 57-27 45 0 49 2 35 15-23 23-85 31-92 12zM1257 321c-33-26-35-30-22-49 10-14 22-19 37-15 18 4 20 2 8-6-8-5-11-13-8-16 4-4 23 5 42 20 42 32 46 24 12-26-20-30-22-37-11-53 12-16 16-16 37-3 13 8 36 18 52 21 27 7 27 8 12 25-10 11-25 17-37 14-13-4-19 0-19 11 0 9 5 16 10 16 6 0 3 11-6 26-12 17-20 22-27 15-6-6-27-11-46-11h-35l29 30c36 38 19 39-28 1zM521 306c-10-12-6-21 26-50 36-32 39-34 56-18 14 12 15 17 5 20-7 3-27 18-44 34-27 25-33 27-43 14zM467 242c-37-41-4-111 46-98 30 7 56 51 39 68-9 9-12 7-12-10 0-27-25-39-45-22-29 24-17 67 18 61 5-1 6 3 2 9-10 15-30 12-48-8zM778 195c-15-18-25-35-21-39 3-3 24-6 45-6s50-7 63-16c21-14 30-14 54-4 16 6 37 20 47 31 9 10 26 19 37 19 10 0 32 11 48 25l30 24-138-1-138-1-27-32zM1080 171c0-15 42-41 65-41 12 0 32 11 45 25l23 25h-66c-37 0-67-4-67-9z"/></g><g fill="#f8f7f7"><path d="M1009 673c-8-9-9-14-2-10 16 10 43-2 43-19s-14-18-42-3c-16 9-24 8-36-4-14-14-13-18 2-41 9-14 22-26 29-26s4 7-7 15c-10 7-15 19-11 25 5 8 10 8 20 0 8-6 24-10 37-8 32 4 34 38 5 66-23 21-25 22-38 5zM796 635c-3-8-2-15 2-15s21-13 38-29l31-30 22 29c11 16 21 33 21 37s-5 0-11-9c-12-22-33-24-25-2 4 11 1 14-13 9-10-3-24 1-31 10-16 19-26 19-34 0zM1048 571l-33-29 24-26c14-14 27-24 29-21 3 3-3 11-13 19-14 10-15 15-5 21 7 4 16 2 21-6 6-11 11-11 21-1 9 9 9 12-5 12-23 0-22 17 2 29 22 12 31 5 31-23 0-15 3-17 12-8s6 17-12 37c-30 31-33 31-72-4zM744 567c-21-19-26-29-20-50 13-52 70-56 96-7 13 24 0 54-30 70-15 8-25 5-46-13zm48-24c23-20 23-43 1-43-20 0-53 28-53 47 0 18 30 16 52-4zM1134 516c-11-13-29-28-40-34-18-11-17-13 14-42 24-22 39-29 54-25 17 6 18 4 9-13-15-28 4-69 36-77 26-6 47 6 63 36 13 24-24 69-57 69-20 0-23 3-15 13 8 9 4 24-14 55-14 23-26 42-27 41l-23-23zm44-37c-4-29-38-51-58-38-13 8-11 13 13 34 34 31 49 32 45 4zm78-81c10-15-42-59-61-52-21 8-19 20 7 44 25 23 43 26 54 8zM643 449c-7-7-1-19 18-41 16-16 29-37 29-46 0-13 3-12 14 4 10 13 11 23 4 31-5 7-7 17-3 23 3 5 1 10-6 10s-20 7-29 15c-11 10-19 12-27 4zM581 373c-7-13-1-23 25-44 30-24 33-29 18-37-10-5-12-12-6-16 5-3 22 10 36 29 22 28 25 38 16 52-9 16-10 15-5-4 9-32-10-29-45 7-26 26-30 28-39 13zM1275 330c-10-11-26-22-36-25-18-6-18-7-2-29 11-15 25-21 38-19 16 4 17 3 5-6-8-5-11-13-7-17s20 5 35 19c16 15 31 27 35 27 14 0 6-26-17-55-18-22-21-33-13-46 9-14 13-14 48 3 21 10 43 18 49 18 25 0 2 25-24 27-36 3-42 9-27 27 16 20-5 64-22 47-13-13-77-15-77-2 0 5 12 19 28 30 15 11 22 21 16 21s-19-9-29-20zM525 302c-3-9 9-28 30-49 29-28 36-31 41-18 5 11-5 27-29 49-28 26-37 30-42 18zM464 235c-29-44 7-105 54-91 25 8 46 46 33 59-8 8-11 6-11-5 0-22-16-31-40-23-23 7-28 53-8 73 9 9 9 12 0 12-6 0-19-11-28-25zM780 195c-35-36-31-45 22-45 21 0 50-7 63-16 21-14 30-14 54-4 16 6 37 20 47 31 9 10 26 19 37 19 10 0 32 11 49 25l29 25-135-2-136-2-30-31zM1080 171c0-13 41-41 60-41 8 0 29 11 45 25l30 24-67 1c-38 0-68-4-68-9z"/></g></svg>