<svg xmlns="http://www.w3.org/2000/svg" viewBox="0 0 459.75 350.07"><path d="M165.42 70l-.2.23a6.45 6.45 0 0 1-4.52 2.22l2.82-4.87c1.81-3.14.14-6.1-2.68-6.1-2.3 0-4.09.92-5.82 3.91l-1.46 2.57-1.23 2.1-.15.17c-2.16 2.5-4.26 4.5-5.59 4.5-.66 0-1.03-.47-.34-1.65l6.42-11.2h2.44l.87-1.44h-2.48l2.82-4.9h-3l-2.81 4.9h-2.71l-.86 1.44h2.73l-6.02 10.43c-1.27 2.21-.37 4.26 2.04 4.26 1.74 0 3.67-1.31 5.52-3.09 0 3.82 5.3 4.57 8.54.47h.66c1.78 0 4.6-1.1 6.13-2.91-.2-.4-.71-.87-1.12-1.04zm-6.39.2h-.14c-.98 0-1.76.81-1.76 1.79 0 .37.11.72.29 1l-.03.06c-1.41 2.42-4.84 1.96-3.05-1.15l2.27-3.94 1.44-2.45c2.1-3.57 4.98-2.16 3.16.95l-2.18 3.74zm47.85-.2l-.2.23c-2.16 2.5-4.93 4.49-7.03 4.49-1.84 0-2.94-1.15-1.55-3.57l.28-.52c1.93.8 5.56.43 7.8-3.45l.44-.75c1.61-2.77.06-4.84-2.39-4.84-2.42 0-4.35 1.27-5.62 3.46l-2.9 4.98-.17.2c-2.16 2.5-4.26 4.5-5.6 4.5-.65 0-1.03-.47-.34-1.65l4.32-7.57c1.3-2.28.06-3.92-1.61-3.92-1.3 0-2.68.72-4.18 2.28l4.78-8.32h-3l-8.35 14.49-.16.19c-2.16 2.5-4.26 4.5-5.59 4.5-.66 0-1.04-.47-.34-1.65l6.42-11.2h2.44l.87-1.44h-2.48l2.82-4.9h-3l-2.81 4.9h-2.7l-.87 1.44h2.73l-6.02 10.42c-1.26 2.22-.37 4.26 2.05 4.26 1.21 0 2.51-.64 3.82-1.62l-.77 1.34h3.02l4.55-7.92c4.6-5.8 6.65-5.04 5.35-2.82L187 72.3c-1.26 2.22-.37 4.27 2.05 4.27 1.78 0 3.76-1.38 5.65-3.22.14 1.86 1.65 3.22 4.05 3.22 3.4 0 6.77-2.65 9.24-5.53-.2-.4-.71-.87-1.12-1.04zm-5.7-4.2c1.73-2.97 4.78-2.48 3 .63l-.44.75c-1.44 2.45-3.37 2.4-4.5 1.99l1.94-3.37zM316.05 70l-.2.23a18.79 18.79 0 0 1-3.6 3.25c.95-2.85.75-7.22 2.59-11.05l-2.25-1.21c-1.24 1.7-3.94 5.61-6.65 8.78l-.2.23c-2.16 2.5-4.26 4.49-5.58 4.49-.67 0-1.04-.46-.35-1.64l6.4-11.2h-3l-5.33 9.3c-2.27 2.07-4.03 3.22-4.6 2.96-.75-.31 0-1.43.37-2.07l5.85-10.19h-3L291.8 70l-.2.23a6.45 6.45 0 0 1-4.51 2.22l2.82-4.87c1.81-3.14.14-6.1-2.68-6.1-2.3 0-4.09.92-5.82 3.92l-1.47 2.56-1.22 2.1-.16.17c-2.16 2.5-4.92 4.5-7.02 4.5-1.84 0-2.94-1.16-1.56-3.58l.3-.52c1.92.81 5.55.44 7.8-3.45l.43-.75c1.6-2.77.06-4.84-2.4-4.84-2.41 0-4.34 1.27-5.6 3.46l-2.91 4.98-.18.2c-2.47 2.85-4.6 4.7-6.97 5.7l6.71-11.46h-1.76c0-1.24-1.26-2.88-3.13-2.88-1.61 0-3.86 1.27-5.13 3.46L254.27 70l-.2.23c-2.17 2.5-4.27 4.49-5.6 4.49-.66 0-1.03-.46-.34-1.64l3-5.24c1.03-1.82.54-2.88-.44-4.06l-1.67-2.02c-.43-.55-.43-1.15.17-1.73l-1.55-1.7c-1.7 1.53-1.85 3.23-.78 4.61l.26.35c-1.32 1.87-3.1 4.4-5.07 6.7V70l-.2.23a6.47 6.47 0 0 1-4.52 2.22l2.82-4.87c1.82-3.14.15-6.1-2.67-6.1-2.3 0-4.1.92-5.82 3.91l-1.47 2.56-1.23 2.1-.15.18c-2.48 2.85-4.6 4.7-6.97 5.7l6.71-11.46h-1.75c0-1.24-1.27-2.88-3.14-2.88-1.61 0-3.86 1.27-5.12 3.46l-4.2 7.25c-1.27 2.22-.38 4.26 2.04 4.26a5.7 5.7 0 0 0 2.85-1l-.84 1.4c-4.03 1.24-6.56 2.89-6.56 5.13 0 2.88 4.4 3.49 6.56-.2l2.28-3.94c2.4-.75 4.74-2.16 7.18-4.48-.02 3.83 5.3 4.58 8.54.47h.66c1.78 0 4.6-1.09 6.13-2.9a99.13 99.13 0 0 0 4.95-6.42l.4.49c.38.49.53 1.1.18 1.7l-3.17 5.5c-1.27 2.21-.37 4.26 2.05 4.26 1.51 0 3.17-1 4.8-2.43-.05 1.39.88 2.43 2.6 2.43a5.7 5.7 0 0 0 2.85-1.01l-.84 1.4c-4.03 1.25-6.56 2.89-6.56 5.13 0 2.88 4.4 3.49 6.56-.2l2.28-3.94c2.44-.76 4.83-2.22 7.31-4.62.13 1.88 1.65 3.24 4.06 3.24 2.43 0 4.86-1.37 6.94-3.2-.11 3.92 5.27 4.72 8.54.58h.67a8.4 8.4 0 0 0 3.33-.86c-.81 2.08-.07 3.48 1.65 3.48 1.64 0 3.48-1.5 4.92-2.88-.29 1.61.66 2.88 2.56 2.88 2.48 0 5.33-2.65 7.8-5.53 1.7-1.96 3.2-4.06 4.26-5.47-1.18 3.1-.54 8.7-3.4 8.7-1 0-1.4-1.1-1.4-1.1l-1.87.98s.54 2.42 3.28 2.42c.28 0 .54-.03.83-.06.03 0 .06-.03.1-.03 3.04-.4 6.06-2.82 8.31-5.44a1.9 1.9 0 0 0-1.12-1.04zm-42.99-4.2c1.73-2.97 4.78-2.48 3 .63l-.43.75c-1.44 2.45-3.37 2.4-4.5 1.99l1.93-3.37zM215.9 81.4c-.64 1.13-1.64.95-1.64.15 0-.78.72-1.67 2.99-2.56l-1.35 2.41zm1.38-6.68c-.66 0-1.04-.46-.35-1.64l4.18-7.28c1.61-2.8 4.81-2.08 3.34.63l-2.27 3.98c-1.82 2.9-3.63 4.31-4.9 4.31zm18.4-4.52h-.15c-.98 0-1.75.81-1.75 1.79 0 .37.11.72.28 1l-.02.06c-1.41 2.42-4.84 1.96-3.06-1.15l2.28-3.94 1.44-2.45c2.1-3.57 4.98-2.16 3.16.95l-2.18 3.74zm18.82 11.2c-.63 1.13-1.64.95-1.64.15 0-.78.72-1.67 3-2.56l-1.36 2.41zm1.38-6.68c-.66 0-1.03-.46-.34-1.64l4.17-7.28c1.62-2.8 4.81-2.08 3.34.63l-2.27 3.98c-1.81 2.9-3.63 4.31-4.9 4.31zm29.54-4.52h-.14c-.98 0-1.76.81-1.76 1.79 0 .37.12.72.3 1l-.04.06c-1.4 2.42-4.83 1.96-3.05-1.15l2.28-3.94 1.44-2.45c2.1-3.57 4.98-2.16 3.16.95l-2.18 3.74zm-183.99-3.38h28.92v1.96h-28.92zm227 0h28.92v1.96h-28.92z" fill="#766458"/><path d="M163.18 0h7.71l-1.21 44.92h-14.52l-1.98-18.55-1.97 18.55h-14.6L135.48 0h7.65l.63 37.15h.83L149.36 0h7.58l4.9 37.15h.77L163.18 0zm31.85 37.15v7.77h-20.9V0h20.9v7.7h-13.25v10.84h10.58v7.7h-10.58v10.91h13.25zm21.34 0v7.77H198.1V0h7.65v37.15h10.63zm16.25-8.79l7.7-1.8v13.6a4.8 4.8 0 0 1-4.7 4.76h-11.48a4.76 4.76 0 0 1-4.71-4.75V4.75c0-2.63 2.1-4.75 4.71-4.75h11.47a4.76 4.76 0 0 1 4.71 4.75v9.11l-7.7 1.8V7.7h-5.55v29.45h5.54v-8.79zM261.09 0a4.76 4.76 0 0 1 4.71 4.75v35.42a4.8 4.8 0 0 1-4.71 4.75h-11.47a4.76 4.76 0 0 1-4.71-4.75V4.75c0-2.63 2.1-4.75 4.71-4.75h11.47zm-3 7.7h-5.54v29.45h5.54V7.7zM290.84 0h7.58v44.92h-7.65V22.84l-3.06 11.43h-7.45l-3-11.43v22.08h-7.64V0h7.58l6.82 21.69L290.84 0zm32.3 37.15v7.77h-20.9V0h20.9v7.7h-13.26v10.84h10.58v7.7h-10.58v10.91h13.25z" fill="#81B3D3"/><path d="M44.47 157.61c-3.58-2.98-8.14-4.96-12.9-4.96-3.58 0-8.34 2.08-8.34 6.25 0 4.37 5.26 6.06 8.63 7.15l4.97 1.49c10.42 3.07 18.46 8.33 18.46 20.44 0 7.45-1.79 15.09-7.74 20.15-5.86 4.97-13.7 7.05-21.24 7.05A46.18 46.18 0 0 1 0 206.64l8.33-15.68c4.86 4.27 10.62 7.74 17.27 7.74 4.57 0 9.43-2.28 9.43-7.54 0-5.46-7.64-7.35-11.81-8.54-12.2-3.47-20.25-6.65-20.25-21.14 0-15.2 10.82-25.11 25.8-25.11a51.2 51.2 0 0 1 23.43 6.15l-7.74 15.09zm47.36-2.78v12.5h21.94v16.49H91.83v12.9h23.13v16.48H72.38v-74.84h42.58v16.47H91.83zm37.59-16.48h27.6c20.84 0 38 16.38 38 37.42 0 21.04-17.26 37.42-38 37.42h-27.6v-74.84zm19.45 58.37h4.37c11.61 0 21.54-6.35 21.54-20.94 0-13.4-8.84-20.95-21.34-20.95h-4.57v41.89zm138-22.33c0 24.22-17.37 41.29-41.39 41.29s-41.39-17.07-41.39-41.3c0-22.63 19.85-38.5 41.4-38.5s41.38 15.87 41.38 38.5zm-62.53.1c0 12.9 9.53 22.33 21.14 22.33 11.61 0 21.14-9.43 21.14-22.34 0-10.32-9.52-19.75-21.14-19.75-11.61 0-21.14 9.43-21.14 19.75zm72.9-36.14h19.45l35.64 45.76h.2v-45.76h19.45v74.84h-19.46l-35.63-45.85h-.2v45.85h-19.45v-74.84zm110.1 61.84l-5.15 13h-20.65l28.79-74.84h21.24l28.19 74.84H439l-4.86-13h-26.8zm13.6-38.7h-.2l-8.03 23.81h16.18l-7.94-23.82z" fill="#FFF"/><g fill="#FFF"><path d="M108.08 287.74c7.66-2.59 8.24-12.18.7-12.18-2.09 0-4.57 1.46-6.28 4.45L92.3 297.66c-.47.84-.95 1.53-1.46 2.15-2.62-3.61-1.86-9 1.83-11.38l-1.54-1.93c-7.95 5.07-5.61 19.7 7.66 19.7 11.34 0 16.6-13.6 9.3-18.46zm-9.37 15.54c-2.26 0-4.05-.51-5.47-1.32.66-.76 1.31-1.71 1.9-2.7l6.37-11.05 1.03.11c8.9 1.86 5.36 14.96-3.83 14.96zm4.08-17.29l3.07-5.25c2.77-4.78 6.3-1.97 4.4 1.6-1.45 2.74-3.6 3.58-7.47 3.65z"/><path d="M140.16 300c-.63 2.25.57 4.08 3.15 4.08 1.53 0 3.42-.99 5.25-2.48.18 1.46 1.35 2.48 3.28 2.48 2.02 0 4.23-1.4 6.4-3.36-.43 2.05.53 3.36 2.4 3.36 2.08 0 4.42-1.9 6.24-3.65-.37 2.04.84 3.65 3.24 3.65 3.14 0 6.75-3.35 9.89-7l-.1-.15c2.1-2.44 3.94-5.03 5.26-6.78-1.5 3.94-.69 11.01-4.3 11.01-1.27 0-1.79-1.38-1.79-1.38l-2.37 1.24s.7 3.06 4.16 3.06c.36 0 .7-.04 1.06-.07.03 0 .07-.04.1-.04 2.8-.37 5.56-2.06 7.95-4.22.06 2.5 2 4.33 5.14 4.33 4.3 0 8.57-3.35 11.71-7a3.3 3.3 0 0 0-1.42-1.31l-.26.29c-2.73 3.17-6.23 5.68-8.9 5.68-2.33 0-3.71-1.46-1.96-4.52l.36-.65c2.45 1.02 7.04.54 9.89-4.38l.54-.95c2.05-3.5.08-6.12-3.02-6.12-3.07 0-5.51 1.6-7.11 4.37l-3.69 6.32-.1-.05-.26.3a23.65 23.65 0 0 1-4.56 4.12c1.2-3.61.95-9.16 3.29-14l-2.85-1.54c-1.57 2.15-5 7.11-8.42 11.12l.1.14-.13.16c-2.73 3.17-5.4 5.69-7.07 5.69-.84 0-1.31-.59-.44-2.08l8.1-14.19h-3.8l-6.75 11.78c-2.88 2.62-5.1 4.08-5.83 3.75-.95-.4 0-1.82.47-2.62l7.4-12.91h-3.79l-6.03 10.45c-.1-.06-.2-.13-.3-.17l-.25.3c-2.73 3.17-5.4 5.68-7.07 5.68-.84 0-1.31-.58-.44-2.07l6.13-10.73h-2.15c.14-1.6-1.5-3.83-3.98-3.83-2.04 0-4.89 1.61-6.49 4.38l-3.85 6.64a2.9 2.9 0 0 0-.57-.37l-.26.3c-2.73 3.17-6.23 5.68-8.9 5.68-2.33 0-3.72-1.46-1.97-4.52l3.9-6.78c2.2-3.76 6.06-3.14 3.8.8l-.55.95h3.1l.55-.95c2.04-3.5.07-6.13-3.03-6.13-3.06 0-5.5 1.6-7.1 4.38l-3.78 6.47a2.43 2.43 0 0 0-.35-.2l-.25.3c-2.74 3.17-6.24 5.68-8.9 5.68-2.34 0-3.72-1.46-1.97-4.52l.36-.66c2.45 1.03 7.04.55 9.89-4.37l.54-.95c2.04-3.5.08-6.13-3.02-6.13-3.07 0-5.51 1.6-7.11 4.38l-3.98 6.82c-2.37 4.05-.33 7.77 4.16 7.77 3.34 0 6.65-2.03 9.44-4.64-.1 2.65 1.86 4.64 5.14 4.64 3.1 0 6.17-1.74 8.83-4.07zm58.03-9.56c2.19-3.76 6.05-3.14 3.79.8l-.55.95c-1.82 3.1-4.26 3.03-5.68 2.51l2.44-4.26zM144 299.67l5.29-9.23c2.04-3.54 6.09-2.63 4.23.8l-2.96 5.18c-2.3 3.6-4.56 5.32-6.12 5.32-.84 0-1.32-.58-.44-2.08zm-24.18-9.23c2.18-3.76 6.05-3.14 3.79.8l-.55.95c-1.82 3.1-4.27 3.02-5.7 2.51l2.45-4.26zm128.58 13.64c4.3 0 8.57-3.36 11.7-7a3.28 3.28 0 0 0-1.42-1.32l-.25.3c-2.74 3.17-6.24 5.68-8.9 5.68-2.34 0-3.72-1.46-1.97-4.52l.36-.65c2.45 1.02 7.04.54 9.89-4.38l.54-.95c2.05-3.5.08-6.12-3.02-6.12-3.06 0-5.5 1.6-7.11 4.37l-3.7 6.34-.11-.07-.26.3c-2.73 3.17-5.4 5.68-7.07 5.68-.84 0-1.3-.58-.44-2.08l5.47-9.59c1.65-2.88.08-4.96-2.04-4.96-1.64 0-3.39.92-5.29 2.88l6.06-10.54h-3.8l-10.7 18.56a2.6 2.6 0 0 0-.43-.25l-.25.3c-2.74 3.17-5.4 5.68-7.08 5.68-.83 0-1.3-.58-.43-2.08l8.13-14.18h3.1l1.1-1.82h-3.14l3.57-6.2h-3.8l-3.57 6.2h-3.42l-1.1 1.82h3.47l-7.63 13.2c-1.6 2.81-.47 5.4 2.6 5.4 1.88 0 3.94-1.22 5.96-2.98l-1.5 2.61h3.82l5.76-10.03c5.84-7.33 8.43-6.38 6.79-3.57l-4.93 8.57c-1.6 2.81-.47 5.4 2.6 5.4 2.3 0 4.86-1.81 7.3-4.22.1 2.44 2.04 4.22 5.14 4.22zm3.06-13.64c2.19-3.76 6.06-3.14 3.8.8l-.55.95c-1.83 3.1-4.27 3.03-5.7 2.52l2.45-4.27zm111.96 5.33l-.26.29c-2.73 3.17-5.4 5.69-7.07 5.69-.84 0-1.31-.59-.44-2.08l12.84-22.21h-3.8l-5.58 9.63a4.11 4.11 0 0 0-3.46-1.97c-2.04 0-4.89 1.6-6.5 4.37l-3.7 6.4-.24-.13-.26.3c-2.73 3.17-5.4 5.68-7.07 5.68-.84 0-1.31-.58-.44-2.08l5.47-9.59c1.64-2.88.07-4.96-2.04-4.96-1.64 0-3.36.88-5.25 2.85l1.42-2.48h-3.8l-6.05 10.49a2.64 2.64 0 0 0-.37-.2l-.25.29c-2.74 3.17-5.4 5.68-7.08 5.68-.83 0-1.3-.58-.43-2.08l6.12-10.72h-2.15c.15-1.6-1.5-3.83-3.97-3.83-2.05 0-4.9 1.6-6.5 4.38l-3.66 6.33-.21.23c-2.73 3.17-5.4 5.69-7.07 5.69-.84 0-1.32-.58-.44-2.08l3.79-6.64c1.31-2.3.69-3.64-.55-5.14l-2.11-2.55c-.55-.7-.55-1.46.22-2.2l-1.97-2.14c-2.15 1.93-2.33 4.08-.99 5.83l.33.44c-1.67 2.37-3.94 5.58-6.42 8.5l.26.32c-3.12 3.6-5.78 5.92-8.76 7.2l4.81-8.25H286l-.4.66c-2 3.53-4.3 6.05-7.26 6.05-2.59 0-3.06-2.59-.8-6.45l1.06-1.86c.69.1 1.38.18 2.15.18 13.5 0 20.02-18.05 8.13-18.05-2.08 0-4.56 1.46-6.27 4.45l-5.9 10.17a6.1 6.1 0 0 1-3.4-5.4c0-1.75.8-3.5 2.44-4.77l-1.24-2.23c-2.7 1.94-3.9 4.52-3.9 7.08a8.57 8.57 0 0 0 4.78 7.55l-1.13 1.97c-2.67 4.6-2.2 9.7 3.17 9.7a7.6 7.6 0 0 0 4.12-1.2l-.99 1.7c-5.14 1.57-8.3 3.65-8.3 6.5 0 3.64 5.57 4.41 8.3-.26l2.92-5c3.94-1.23 7.8-3.93 11.97-8.75a2.3 2.3 0 0 0-.24-.35c1.68-1.98 3.11-3.9 5.97-7.78l.51.62c.48.62.66 1.39.22 2.15l-4.01 6.97c-1.6 2.8-.48 5.4 2.59 5.4 1.9 0 3.99-1.25 6.03-3.04-.04 1.74 1.15 3.03 3.31 3.03 1.53 0 3.43-.98 5.25-2.48.19 1.46 1.35 2.48 3.29 2.48 1.81 0 3.79-1.13 5.74-2.78l-1.4 2.42h3.83l5.8-10.1c5.8-7.26 8.39-6.32 6.74-3.5l-4.92 8.56c-1.6 2.81-.48 5.4 2.59 5.4 2.02 0 4.22-1.39 6.38-3.35-.2 1.9 1 3.35 3.3 3.35 1.52 0 3.42-.98 5.24-2.48.19 1.46 1.35 2.48 3.28 2.48 3.14 0 6.75-3.35 9.89-7a3.3 3.3 0 0 0-1.43-1.3zm-77.96-14.15c1.13-1.94 2.37-2.78 3.43-2.78 6.01 0 1.78 12.26-8.14 12.26H280l5.47-9.49zm-8.06 28.59c-.8 1.42-2.08 1.2-2.08.18 0-.99.87-2.12 3.8-3.25l-1.72 3.06zm39.69-13.79c-2.3 3.61-4.56 5.33-6.13 5.33-.84 0-1.31-.59-.44-2.08l5.29-9.23c2.04-3.54 6.09-2.63 4.23.8l-2.95 5.18zm36.7-.22c-2.3 3.76-4.63 5.55-6.24 5.55-.83 0-1.3-.59-.43-2.08l5.28-9.23c2.05-3.54 6.1-2.63 4.23.8h.04l-2.88 4.96zM236.7 331.76l-.25.3c-2.74 3.17-5.4 5.69-7.08 5.69-.84 0-1.3-.59-.43-2.08l5.47-9.6c1.64-2.87.07-4.95-2.05-4.95-1.64 0-3.35.87-5.25 2.84l1.42-2.48h-3.79l-6.1 10.58a2.64 2.64 0 0 0-.5-.3l-.25.3a8.18 8.18 0 0 1-5.72 2.8l3.57-6.16c2.3-3.97.18-7.73-3.4-7.73-2.91 0-5.17 1.17-7.36 4.96l-1.86 3.25-1.63 2.78a2.38 2.38 0 0 0-.34-.2l-.25.3c-3.14 3.6-5.8 5.94-8.8 7.22l10.4-17.8h-3.79l-6.71 11.67c-2.92 2.7-5.18 4.2-5.9 3.87-.96-.4 0-1.83.47-2.63l7.4-12.9h-3.8l-6.05 10.46c-.1-.07-.22-.14-.33-.19l-.25.3c-2.74 3.17-5.4 5.68-7.08 5.68-.84 0-1.31-.58-.44-2.08l5.47-9.59c1.65-2.88.08-4.96-2.04-4.96-1.64 0-3.35.88-5.25 2.85l1.42-2.48h-3.79l-6.06 10.49a2.54 2.54 0 0 0-.36-.2l-.26.29c-2.73 3.17-5.4 5.68-7.07 5.68-.84 0-1.31-.58-.44-2.08l6.13-10.72h-2.15c.14-1.6-1.5-3.83-3.98-3.83-2.04 0-4.89 1.6-6.49 4.38l-3.92 6.76a2.16 2.16 0 0 0-.83-.49l-.25.3c-2.74 3.17-6.1 5.68-9.85 5.68-2.6 0-4.16-2.59-1.9-6.45l1.06-1.86c.7.1 1.39.18 2.15.18 4.05 0 8.65-2.08 11.64-7.3a10.51 10.51 0 0 0 1.53-5.1c0-3.42-2.23-5.65-5.03-5.65-2.08 0-4.56 1.46-6.28 4.45l-5.9 10.18a6.1 6.1 0 0 1-3.4-5.4c0-1.75.8-3.5 2.44-4.78l-1.24-2.22c-2.7 1.93-3.9 4.52-3.9 7.07a8.57 8.57 0 0 0 4.78 7.55l-1.13 1.97c-2.66 4.6-1.1 9.7 4.27 9.7 4.24 0 7.35-1.89 9.97-4.37-.83 2.38.37 4.37 3.05 4.37 1.54 0 3.43-.98 5.26-2.48.18 1.46 1.35 2.48 3.28 2.48 1.81 0 3.79-1.13 5.74-2.78l-1.4 2.42h3.83l5.8-10.1c5.8-7.26 8.39-6.31 6.75-3.5l-4.93 8.56c-1.6 2.81-.47 5.4 2.6 5.4 2.03 0 4.27-1.43 6.46-3.43-.46 2.09.5 3.43 2.4 3.43 1.82 0 3.9-1.53 5.61-3.06l-2.08 3.57c-5.14 1.53-8.35 3.65-8.35 6.49 0 3.65 5.58 4.41 8.31-.26l2.92-5c3.17-1 6.3-2.96 9.56-6.19-.52 5.3 6.54 6.5 10.8 1.13h.83c1.38 0 3.26-.53 4.95-1.46l-2.55 4.41h3.83l5.8-10.1c5.8-7.26 8.39-6.31 6.75-3.5l-4.92 8.57c-1.6 2.8-.48 5.4 2.59 5.4 3.13 0 6.74-3.36 9.88-7a3.28 3.28 0 0 0-1.42-1.32zm-94.38-14.15c1.13-1.93 2.37-2.77 3.42-2.77 1.43 0 2.08.95 2.08 2.34 0 3.54-4.3 9.92-10.2 9.92h-.77l5.47-9.49zm13.35 14.81c-2.3 3.61-4.56 5.33-6.12 5.33-.84 0-1.32-.59-.44-2.08l5.29-9.23c2.04-3.54 6.09-2.63 4.23.8l-2.96 5.18zm28.85 13.79c-.8 1.42-2.08 1.2-2.08.18 0-.99.92-2.12 3.83-3.25l-1.75 3.06zm25.53-14.19h-.18a2.24 2.24 0 0 0-2.23 2.26c0 .48.15.91.37 1.28l-.04.07c-1.79 3.06-6.13 2.48-3.86-1.46l2.88-5 1.82-3.1c2.66-4.52 6.3-2.73 4.01 1.2l-2.77 4.75zm114.56 1.06a2.39 2.39 0 0 0-1.42-1.31l-.26.29a23.68 23.68 0 0 1-4.56 4.12c1.2-3.61.95-9.16 3.28-14l-2.84-1.54c-1.57 2.15-5 7.11-8.43 11.13l.02.02-.04-.03-.26.3c-2.73 3.17-5.4 5.69-7.07 5.69-.84 0-1.65-.84-1.65-2.56v-1.57c2.67.33 5.47-1.42 7.26-4.52l1.02-1.75c3.54-6.05-2.22-8.06-6.09-4.52l5.4-9.37h-3.8l-10.81 18.77a3.04 3.04 0 0 0-.7-.46l-.25.3c-2.73 3.16-6.24 5.68-8.9 5.68-2.33 0-3.72-1.46-1.97-4.52l3.9-6.78c2.2-3.76 6.06-3.14 3.8.8l-.55.95h3.1l.55-.95c2.04-3.5.07-6.13-3.03-6.13-3.06 0-5.5 1.6-7.1 4.38l-3.74 6.4c-.08-.04-.16-.1-.24-.13l-.25.3c-2.73 3.16-5.4 5.68-7.07 5.68-.84 0-1.32-.58-.44-2.08l8.1-14.18h-3.8l-6.75 11.78c-2.88 2.62-5.1 4.08-5.83 3.75-.95-.4 0-1.82.47-2.62l7.4-12.91h-3.79l-7.36 12.74a22.8 22.8 0 0 1-2.45 1.95c1.2-3.61.94-9.15 3.28-14l-2.85-1.54c-1.56 2.15-10.32 13.75-13.75 17.76.33.48.88.95 1.43 1.32a504.67 504.67 0 0 0 10.72-13.57c-1.5 3.94-.7 11.02-4.3 11.02-1.28 0-1.8-1.4-1.8-1.4l-2.36 1.25s.7 3.06 4.16 3.06c.36 0 .69-.04 1.06-.07.03 0 .07-.04.1-.04a13.15 13.15 0 0 0 5.63-2.38c0 1.55.92 2.5 2.51 2.5 2.08 0 4.41-1.9 6.24-3.66-.37 2.05.83 3.65 3.24 3.65 2.36 0 4.98-1.9 7.47-4.38.03 2.52 1.97 4.38 5.14 4.38 3.08 0 6.14-1.72 8.78-4.03l-2.11 3.67h3.83l4.34-7.55v3.02c0 3.25.61 4.89 3.68 4.89 3.13 0 6.75-3.35 9.88-7l-.02-.04.05.04c2.15-2.48 4.05-5.14 5.4-6.93-1.5 3.94-.7 11.01-4.3 11.01-1.28 0-1.8-1.38-1.8-1.38l-2.37 1.24s.7 3.06 4.16 3.06c.36 0 .7-.04 1.06-.07.03 0 .07-.04.1-.04 3.87-.51 7.7-3.58 10.55-6.9zm-25.19-3l1.1-1.89c4.37-6.09 7.36-4.41 6.02-2.12l-1.83 3.14c-1.13 1.97-4.45 3.36-5.29.88zm25.04 5.59c-1.24 0-2.19.98-2.19 2.22s.95 2.2 2.2 2.2a2.21 2.21 0 0 0 0-4.42zm.19-1.5h3.83l11.88-20.71h-3.79"/></g><path fill="#FFF" d="M80.41 277.58a2.45 2.45 0 0 1-.67 1.68 2.63 2.63 0 0 1-1.93.8c-.45 0-.89-.1-1.3-.26a2.97 2.97 0 0 1-1.07-.73 3.1 3.1 0 0 1-.57-1.05 4 4 0 0 1-.2-1.28 6 6 0 0 1 .45-2.37 5.98 5.98 0 0 1 1.3-1.93c.25-.25.53-.48.85-.7a9.03 9.03 0 0 1 .9-.53c.27-.15.51-.27.72-.36.2-.09.33-.14.37-.17l1.35 2c-.25.09-.52.2-.83.35a4.66 4.66 0 0 0-.86.54c-.27.22-.5.47-.67.76a2.17 2.17 0 0 0-.3 1.02c.65 0 1.22.2 1.72.58.5.38.74.93.74 1.65zm7.87 0a2.43 2.43 0 0 1-.68 1.68 2.57 2.57 0 0 1-1.93.79c-.45 0-.88-.08-1.3-.25a2.92 2.92 0 0 1-1.06-.73c-.25-.3-.44-.64-.58-1.05s-.2-.83-.2-1.28c0-.86.15-1.65.46-2.37a6 6 0 0 1 1.3-1.93 8.63 8.63 0 0 1 2.47-1.59c.2-.09.33-.14.37-.17l1.35 2c-.24.09-.52.2-.82.35-.3.15-.6.33-.87.54s-.5.47-.67.76a2.13 2.13 0 0 0-.3 1.02c.65 0 1.22.2 1.72.58.5.38.74.93.74 1.65zm265.16 58.94a2.46 2.46 0 0 1 .67-1.67 2.59 2.59 0 0 1 .83-.58 2.67 2.67 0 0 1 1.1-.22c.45 0 .89.09 1.3.26.42.17.78.4 1.07.73.25.29.44.64.58 1.04.13.4.2.84.2 1.29a6.02 6.02 0 0 1-1.76 4.3 7.82 7.82 0 0 1-2.47 1.59l-.38.16-1.35-2a9.6 9.6 0 0 0 .83-.35 4.63 4.63 0 0 0 .86-.54c.27-.22.5-.47.68-.76.18-.3.28-.63.3-1.02-.65 0-1.23-.19-1.72-.57-.5-.39-.74-.94-.74-1.66zm-7.87 0a2.43 2.43 0 0 1 .68-1.67 2.6 2.6 0 0 1 1.93-.8c.45 0 .88.09 1.3.26.42.17.77.4 1.07.73.24.29.44.64.57 1.04.14.4.2.84.2 1.29a6.02 6.02 0 0 1-.45 2.36 6 6 0 0 1-1.3 1.93c-.25.25-.53.48-.85.7a9.1 9.1 0 0 1-.9.54l-.73.35a8.94 8.94 0 0 0-.37.17l-1.35-2c.25-.08.52-.2.83-.35.3-.15.59-.33.86-.54.27-.22.5-.47.68-.76.18-.3.28-.63.3-1.02-.65 0-1.23-.19-1.73-.57-.49-.39-.74-.94-.74-1.66z"/></svg>